<svg version="1.2" xmlns="http://www.w3.org/2000/svg" viewBox="0 0 450 200" width="450" height="200"><style>.a{fill:#8b8d8f}.b{fill:#8dc63f}.c{fill:#d1d3d3}.d{fill:#231f20}</style><path fill-rule="evenodd" class="a" d="m33.7 185.9l5.3 6.8h-6.9l-2.6-3.4c-2.3 1.2-4.7 1.8-7.4 1.8q-6.8 0-11.3-4.7-4.6-4.7-4.6-11.2c0-2.9 0.7-5.6 2.1-8q2.1-3.6 5.8-5.7 3.7-2.2 7.9-2.2 6.4 0 11.1 4.7 4.6 4.6 4.6 11.3 0 6.2-4 10.6zm-3.6-4.6c1.2-1.8 1.8-3.8 1.8-6q0-4.3-2.9-7.3-2.9-3-7-3c-2.8 0-5.2 0.9-7.1 2.9-1.9 1.9-2.9 4.4-2.9 7.4 0 3.4 1.2 6 3.6 8q2.9 2.2 6.4 2.2 2.1 0 3.9-0.8l-5.4-6.9h6.9z"/><path class="a" d="m43.1 160.1h5.8v19.5c0 1.7 0.1 2.9 0.4 3.6q0.5 1.1 1.5 1.7 1 0.6 2.5 0.6 1.5 0 2.6-0.7 1.1-0.7 1.5-1.7c0.3-0.8 0.4-2.1 0.4-4.2v-18.8h5.8v18q0 4.6-0.5 6.4-0.5 1.7-2 3.4-1.4 1.6-3.3 2.4c-1.3 0.5-2.7 0.8-4.4 0.8q-3.3 0-5.7-1.5c-1.7-1-2.8-2.3-3.5-3.8q-1.1-2.3-1.1-7.7z"/><path class="a" d="m70.1 160.1h5.7v30.2h-5.7z"/><path class="a" d="m110.3 165.4l-4 3.8q-4.1-4.3-9.3-4.3-4.3 0-7.3 3-2.9 2.9-2.9 7.3 0 3 1.3 5.4 1.3 2.3 3.7 3.6 2.4 1.4 5.3 1.4 2.6 0 4.6-1 2.1-0.9 4.6-3.4l3.9 4.1q-3.4 3.3-6.3 4.5-3 1.3-6.9 1.3-7 0-11.5-4.5-4.5-4.4-4.5-11.4 0-4.6 2-8.1 2.1-3.5 5.9-5.6 3.8-2.2 8.2-2.2c2.5 0 4.9 0.6 7.2 1.6q3.5 1.6 6 4.5z"/><path class="a" d="m115.6 160.1h5.8v10.4l8.2-10.4h6.9l-10.5 13.5 11.6 16.7h-6.9l-9.3-13.4v13.4h-5.8z"/><path fill-rule="evenodd" class="a" d="m179.8 185.9l5.3 6.8h-6.8l-2.7-3.4q-3.3 1.8-7.4 1.8-6.8 0-11.3-4.7-4.5-4.7-4.5-11.2 0-4.3 2.1-8 2.1-3.6 5.8-5.7 3.6-2.2 7.8-2.2 6.5 0 11.1 4.7 4.7 4.6 4.7 11.3 0 6.2-4.1 10.6zm-3.6-4.6c1.3-1.8 1.9-3.8 1.9-6q0-4.3-2.9-7.3-2.9-3-7.1-3c-2.8 0-5.2 0.9-7 2.9q-2.9 2.9-2.9 7.4 0 5 3.6 8 2.8 2.2 6.4 2.2 2.1 0 3.9-0.8l-5.4-6.9h6.9z"/><path class="a" d="m189.3 160.1h5.8v19.5c0 1.7 0.1 2.9 0.4 3.6q0.5 1.1 1.5 1.7 1 0.6 2.4 0.6 1.5 0 2.6-0.7c0.8-0.4 1.3-1 1.6-1.7q0.4-1.1 0.4-4.2v-18.8h5.8v18q0 4.6-0.5 6.4c-0.4 1.1-1 2.3-2 3.4q-1.5 1.6-3.3 2.4-2 0.8-4.5 0.8-3.2 0-5.7-1.5c-1.6-1-2.8-2.3-3.5-3.8q-1-2.3-1-7.7z"/><path fill-rule="evenodd" class="a" d="m225.9 160.1h5.8l11.7 30.2h-6l-2.4-6.2h-12.3l-2.5 6.2h-6zm3 8.1l-4.1 10.3h8.1z"/><path class="a" d="m248 160.1h5.8v24.8h8.4v5.4h-14.2z"/><path class="a" d="m266.4 160.1h5.7v30.2h-5.7z"/><path class="a" d="m275.8 160.1h16.7v5.7h-5.5v24.5h-5.8v-24.5h-5.4z"/><path class="a" d="m294.5 160.1h6.2l5.7 10.9 5.6-10.9h6.1l-8.9 17.1v13.1h-5.8v-13.1z"/><path fill-rule="evenodd" class="a" d="m335 160.1h6.1c3.3 0 5.7 0.3 7.2 0.9q2.1 0.9 3.4 3 1.3 2 1.3 4.9 0 3.1-1.7 5.2c-1.1 1.4-2.6 2.4-4.5 3q-1.7 0.4-6 0.4v12.8h-5.8zm5.8 11.9h1.8q2.2 0 3-0.3 0.8-0.4 1.3-1.1 0.5-0.7 0.5-1.7 0-1.7-1.4-2.6c-0.6-0.3-1.9-0.6-3.6-0.6h-1.6z"/><path fill-rule="evenodd" class="a" d="m359.2 160.1h6.1q5 0 7.1 0.9 2.2 0.9 3.5 3 1.3 2 1.3 4.9 0 3-1.5 5-1.4 2-4.3 3l7.2 13.4h-6.3l-6.8-12.8h-0.5v12.8h-5.8zm5.8 11.9h1.8q2.7 0 3.8-0.8 1-0.7 1-2.4 0-1-0.5-1.7-0.5-0.7-1.4-1-0.9-0.4-3.2-0.4h-1.5z"/><path class="a" d="m383 160.1h5.8v30.2h-5.8z"/><path class="a" d="m395.5 160.1h5.5l13 19.9v-19.9h5.7v30.2h-5.5l-13-19.8v19.8h-5.7z"/><path class="a" d="m423.9 160.1h16.7v5.7h-5.6v24.5h-5.8v-24.5h-5.3z"/><path class="b" d="m110.5 86.4l-1.2-1.2-43.2-40.7h-4.5l45.7 42.8 0.7 0.8 0.2 0.2 0.2 0.2 0.4 0.4h5.3c-1.9-1.1-3.1-2.1-3.6-2.5z"/><path fill-rule="evenodd" class="b" d="m349.6 117l30.2 28.8h-15l-24.2-23.1-14.8-14-16.7-15.7-24.1-22.7-28.2-26-21.9-20.5c-4.9-4.7-10.2-8-15.4-10.4h2.2l5.4-0.1h10.8l24.4-0.2h45.8 19.4c15.7 0 24.3 8.6 26.2 10.6l26.1 24.5 18.4 17.1 26.9 25.3c3.2 2.8 9.2 8.8 9 15.7q0.1 1.4-0.2 2.8c-1.7 8-8.7 7.8-12.6 7.9-1.7 0-3.1-0.1-3.7-0.2h-16.9l-14.4 0.2zm64.5-12.8h0.3c1.2 0.2 2.4 0.2 3.6 0.2 1.6 0 3.1-0.1 4.4-0.3-0.7-0.8-1.7-1.9-3.2-3.3l-27-25.4-18.4-17-26.2-24.5-0.2-0.3-0.3-0.3c-0.3-0.3-6.7-7.6-19.7-7.6h-65.1l-3.9 0.1 10.2 9.5 28.2 26 24.1 22.7 16.7 15.7 5 4.5z"/><path class="a" d="m429.3 86.2l-27-25.3-18.4-17.1-25.9-24.3c-2.2-2.5-12.4-12.5-30.5-12.5h-19.4-45.8l-24.4 0.2h-10.8l-5.5 0.1h-11.7-46.9l8.6 6.3h24.5l2.9 0.2c8.7 1.1 21.2 4.4 31.8 14.4l21.9 20.5 28.2 26.1 24.1 22.6 16.7 15.7 14.7 14 19.6 18.7h4.4 4.4l-24.2-23.1-14.8-14-16.7-15.7-24.1-22.7-28.2-26-21.9-20.5c-4.9-4.7-10.2-8-15.4-10.4h2.2l5.4-0.1h10.8l24.4-0.2h45.8 19.4c15.7 0 24.3 8.6 26.2 10.6l26.1 24.5 18.4 17.1 26.9 25.3c3.2 2.8 9.2 8.8 9 15.7q0.1 1.4-0.2 2.8c-1.7 8-8.7 7.8-12.6 7.9-1.7 0-3.1-0.1-3.7-0.2h-16.9l-14.4 0.2h-27.8-1.3-7.6l30.2 28.8h4.4 4.3l-23.8-22.7h21.6l14.4-0.2h16.6c0.4 0 2 0.2 4 0.2 3.4 0.1 15.8-0.1 18.5-12.7 0.3-1.4 0.4-2.8 0.4-4.1-0.1-10.3-7.8-17.1-10.9-20.1z"/><path class="c" d="m256.5 110.9l-3.3-3-14-12.9h-19.4l13.9 12.9 3.2 3 3.3 3.1h19.6z"/><path class="c" d="m311.8 113.1l-24.6-23-24.1-22.6-34.1-32.1c-16.4-15.4-34.8-15.9-37.6-15.9h-0.5-151c-0.1 0-0.4-0.1-0.7-0.1-0.7-0.1-1.9-0.1-3.2-0.1-2.1 0-4.7 0.1-7.2 0.9-2.3 0.7-5.3 2.9-5.3 6.6 0.2 3.7 2.4 7 7.1 11.7h4.3 4.5 15.4 87.3 0.2 0.1 48.7 0.1 0.1 0.1c1 0 16.7 0.1 30.3 12.8l13 12.2 35.3 33 12.3 11.4 3.2 3 3.2 3.1 22.3 20.8 11.4 10.5h23.8z"/><path class="c" d="m108.4 88.5l-0.2-0.2-0.1-0.2-0.8-0.8-45.7-42.8h-15.4-4.4-4.4l47.3 44.4h4.4 4.4 15.3z"/><path class="c" d="m228.1 110.9l-3.3-3-13.9-12.9h-11.8l14 12.9 3.3 3 3.3 3.1h11.6z"/><path class="c" d="m207.5 110.9l-3.3-3-14-12.9h-63.5-26.7-4.4-4.4l8.8 8.2c0 0.1 8.9 10.7 26.7 10.8h84.1z"/><path fill-rule="evenodd" class="a" d="m273.9 145.4h-29l-34.1-31.4-3.3-3.1-3.3-3-14-12.9h-112.5c-10.8 0-16.8-5.1-18.3-6.5l-0.2-0.2-0.1-0.2h-0.1l-0.7-0.8-52.1-48.8h136.6c0.6 0 6.8 0 14.6 3 2.1 0.8 4.2 1.8 6.4 3 3.1 1.7 6.3 3.9 9.3 6.8l13 12.2 27.2 25.4 3.3 3 3.2 3.1 13.9 12.9 3.2 3 3.3 3.1 25.5 23.7 1.7 1.7zm-15.3-6.1l-1.6-1.4-25.7-24-3.2-3-3.2-3-13.9-13-3.4-3-3.3-3-19.5-18.4-2.8-2.6-13-12.2c-11.7-11.1-25.8-11.2-26.2-11.2h-121.3l41 38.4 1.2 1.2 0.2 0.2c1.1 1.1 5.6 4.6 13.8 4.6h114.9l3.3 3 3.2 3 14.1 13 3.3 3 3.2 3 27.6 25.4z"/><path fill-rule="evenodd" class="b" d="m322.9 145.3h-29.7l-8.1-8-25.3-23.3-3.3-3.1-3.3-3-14-12.9h-19.4l-3.2-3.1h23.8l17.3 16 3.2 3 3.3 3.1 25.2 23.2 5.2 5.1h20.1l-7.2-7-26.1-24.4-26-24.2 0.5 0.4-0.5-0.5v0.1l-35.4-33.2c-12.6-11.9-27.6-12-28.2-12h-34.4c-7.8-3-14-3-14.6-3h49c1 0 16.8 0.1 30.3 12.8l13 12.2 35.4 33 12.2 11.4 3.2 3 3.3 3.1 22.3 20.8 1.5 1.4 3.5 3.2zm-112.9-51.3l1 0.9h-11.9l-3.2-3h11.7z"/><path class="d" d="m397.7 142.5q0 0.7-0.3 1.2-0.2 0.5-0.6 0.9-0.5 0.3-1.1 0.5-0.6 0.2-1.4 0.2-0.4 0-0.9-0.1-0.4-0.1-0.7-0.2-0.3-0.1-0.6-0.2l-0.3-0.2-0.2-0.3q0-0.2 0-0.4v-0.4l0.1-0.2 0.1-0.1h0.1l0.3 0.1q0.2 0.2 0.5 0.3 0.3 0.2 0.7 0.3 0.4 0.1 1 0.1 0.3 0 0.7-0.1 0.3 0 0.5-0.2l0.4-0.4q0.1-0.3 0.1-0.7 0-0.3-0.2-0.6-0.1-0.2-0.4-0.4-0.3-0.2-0.7-0.3c-0.3-0.1-0.6-0.3-0.8-0.4q-0.4-0.1-0.8-0.3-0.4-0.2-0.7-0.5-0.3-0.3-0.5-0.7-0.2-0.4-0.2-1 0-0.5 0.2-1 0.2-0.5 0.6-0.8 0.4-0.4 1-0.6 0.5-0.2 1.4-0.2 0.3 0 0.6 0.1 0.4 0 0.7 0.1 0.2 0.1 0.4 0.2l0.3 0.2 0.2 0.1v0.1 0.2 0.3 0.3 0.2l-0.1 0.1h-0.1l-0.2-0.1-0.5-0.2q-0.2-0.1-0.6-0.3-0.3-0.1-0.8-0.1-0.4 0-0.7 0.1c-0.2 0.1-0.4 0.2-0.5 0.3l-0.3 0.4q-0.1 0.2-0.1 0.5 0 0.4 0.2 0.6 0.2 0.3 0.5 0.5 0.3 0.1 0.7 0.3c0.3 0.1 0.5 0.2 0.8 0.3 0.3 0.1 0.5 0.2 0.8 0.4q0.4 0.2 0.7 0.5 0.3 0.3 0.5 0.7 0.2 0.4 0.2 0.9z"/><path class="d" d="m402 144.1q0 0.6-0.2 0.9-0.2 0.2-0.9 0.2-0.5 0-0.7-0.2-0.3-0.3-0.3-0.9 0-0.7 0.3-0.9 0.2-0.2 0.8-0.2c0.3 0 0.6 0 0.8 0.2q0.2 0.2 0.2 0.9z"/><path fill-rule="evenodd" class="d" d="m411.4 144.9l-0.1 0.2h-0.2l-0.4 0.1-0.4-0.1h-0.2l-0.1-0.2v-0.9q-0.5 0.6-1.2 0.9-0.7 0.4-1.5 0.4-0.7 0-1.2-0.2-0.6-0.2-0.9-0.5-0.4-0.3-0.7-0.8-0.2-0.5-0.2-1.1 0-0.8 0.3-1.3 0.3-0.5 0.9-0.9 0.5-0.3 1.3-0.5 0.8-0.2 1.9-0.2h1.1v-0.7q0-0.5-0.1-0.8-0.1-0.4-0.3-0.7-0.2-0.2-0.6-0.4-0.4-0.1-0.9-0.1-0.6 0-1.1 0.1-0.5 0.2-0.8 0.3-0.4 0.2-0.6 0.3l-0.3 0.2-0.2-0.1-0.1-0.1v-0.2l-0.1-0.2 0.1-0.4 0.1-0.3q0.2-0.1 0.5-0.3 0.3-0.1 0.7-0.3c0.3-0.1 0.6-0.1 0.9-0.2q0.5-0.1 1-0.1 0.9 0 1.6 0.2c0.4 0.2 0.8 0.4 1 0.6q0.4 0.4 0.6 1.1 0.2 0.5 0.2 1.4zm-1.6-4h-1.3q-0.7 0-1.2 0.1-0.4 0.2-0.8 0.4-0.3 0.2-0.4 0.5-0.2 0.3-0.2 0.7 0 0.6 0.5 1.1 0.4 0.3 1.2 0.3 0.6 0 1.1-0.3 0.5-0.3 1.1-0.9z"/><path class="d" d="m416.3 144.1q0 0.6-0.2 0.9-0.2 0.2-0.8 0.2-0.6 0-0.8-0.2-0.2-0.3-0.2-0.9 0-0.7 0.2-0.9 0.3-0.2 0.8-0.2 0.6 0 0.8 0.2 0.2 0.2 0.2 0.9z"/><path class="d" d="m424.3 136.8v0.4l-0.1 0.2v0.1l-0.2 0.1-0.1-0.1-0.3-0.1-0.3-0.1h-0.4l-0.4 0.1-0.5 0.3q-0.3 0.2-0.5 0.6-0.4 0.4-0.7 0.9v5.7 0.1l-0.1 0.1h-0.3l-0.4 0.1-0.3-0.1h-0.3l-0.1-0.1-0.1-0.1v-8.7l0.1-0.1 0.1-0.1h0.2 0.4 0.3 0.2l0.1 0.1 0.1 0.1v1.3q0.3-0.5 0.6-0.8c0.2-0.3 0.5-0.4 0.6-0.6q0.3-0.1 0.6-0.2l0.5-0.1h0.3l0.3 0.1 0.4 0.1 0.2 0.1v0.1l0.1 0.1v0.2z"/><path class="d" d="m399.2 150.1q0 0.6-0.3 0.9c-0.1 0.1-0.4 0.2-0.8 0.2q-0.6 0-0.8-0.2-0.2-0.3-0.2-0.9 0-0.7 0.2-0.9 0.2-0.2 0.8-0.2 0.6 0 0.8 0.2 0.3 0.2 0.3 0.9z"/><path class="d" d="m403.7 150.9l-0.1 0.1-0.1 0.1h-0.3l-0.3 0.1-0.4-0.1h-0.3l-0.1-0.1v-0.1-12.8-0.2l0.1-0.1h0.3 0.4 0.3 0.3l0.1 0.1 0.1 0.2z"/></svg>